<?xml version="1.0" encoding="UTF-8"?>
<svg width="410px" height="356px" viewBox="0 0 410 356" version="1.1" xmlns="http://www.w3.org/2000/svg" xmlns:xlink="http://www.w3.org/1999/xlink">
    <!-- Generator: Sketch 46 (44423) - http://www.bohemiancoding.com/sketch -->
    <title>Untitled</title>
    <desc>Created with Sketch.</desc>
    <defs>
        <polygon id="path-1" points="0.06 0.709 0.06 355.002 409.602 355.002 409.602 0.709 0.06 0.709"></polygon>
    </defs>
    <g id="Page-1" stroke="none" stroke-width="1" fill="none" fill-rule="evenodd">
        <g id="003-bookshelf">
            <g id="Group-3">
                <mask id="mask-2" fill="white">
                    <use xlink:href="#path-1"></use>
                </mask>
                <g id="Clip-2"></g>
                <path d="M390.098,316.775 L390.098,91.599 L349.207,91.599 L349.207,37.412 L268.969,37.412 L268.969,0.709 L195.344,0.709 L195.344,17.338 L141.566,17.338 L141.566,72.822 L85.445,72.822 L85.445,37.412 L19.504,37.412 L19.504,316.775 L0,316.775 L0,355.002 L409.602,355.002 L409.602,316.775 L390.098,316.775 Z M349.207,316.775 L377.93,316.775 L377.93,103.767 L349.207,103.767 L349.207,316.775 Z M268.969,267.08 L268.969,49.58 L337.043,49.58 L337.043,316.775 L268.969,316.775 L268.969,267.08 Z M207.512,17.338 L207.512,12.877 L256.805,12.877 L256.805,62.572 L207.512,62.572 L207.512,17.338 Z M207.512,82.213 L256.805,82.213 L256.805,74.736 L207.512,74.736 L207.512,82.213 Z M207.512,235.271 L256.805,235.271 L256.805,94.377 L207.512,94.377 L207.512,235.271 Z M207.512,254.912 L256.805,254.912 L256.805,247.439 L207.512,247.439 L207.512,254.912 Z M207.512,316.775 L256.805,316.775 L256.805,267.08 L207.512,267.08 L207.512,316.775 Z M153.734,72.822 L153.734,29.502 L195.344,29.502 L195.344,316.775 L153.734,316.775 L153.734,72.822 Z M131.992,316.775 L141.57,316.775 L141.57,84.986 L131.992,84.986 L131.992,316.775 Z M107.191,316.775 L119.824,316.775 L119.824,84.986 L107.191,84.986 L107.191,316.775 Z M85.445,316.775 L95.023,316.775 L95.023,84.986 L85.445,84.986 L85.445,316.775 Z M31.672,107.588 L73.281,107.588 L73.281,49.58 L31.672,49.58 L31.672,107.588 Z M31.672,247.103 L73.281,247.103 L73.281,119.752 L31.672,119.752 L31.672,247.103 Z M31.672,316.775 L73.281,316.775 L73.281,259.271 L31.672,259.271 L31.672,316.775 Z M12.168,342.834 L397.434,342.834 L397.434,328.939 L12.168,328.939 L12.168,342.834 Z" id="Fill-1" fill="#000000" mask="url(#mask-2)"></path>
            </g>
            <path d="M303.008,102.693 C287.238,102.693 274.41,115.517 274.41,131.287 C274.41,147.056 287.238,159.881 303.008,159.881 C318.773,159.881 331.602,147.056 331.602,131.287 C331.602,115.517 318.773,102.693 303.008,102.693 Z M303.008,147.717 C293.945,147.717 286.578,140.346 286.578,131.287 C286.578,122.228 293.945,114.861 303.008,114.861 C312.066,114.861 319.434,122.228 319.434,131.287 C319.434,140.346 312.066,147.717 303.008,147.717 Z" id="Fill-4" fill="#000000"></path>
            <polygon id="Fill-5" fill="#000000" points="280.492 216.357 325.515 216.357 325.515 204.189 280.492 204.189"></polygon>
            <polygon id="Fill-6" fill="#000000" points="280.492 237.08 325.515 237.08 325.515 224.912 280.492 224.912"></polygon>
            <polygon id="Fill-7" fill="#000000" points="280.492 257.81 325.515 257.81 325.515 245.646 280.492 245.646"></polygon>
        </g>
    </g>
</svg>