<?xml version="1.0" encoding="UTF-8"?>
<svg width="374px" height="412px" viewBox="0 0 374 412" version="1.1" xmlns="http://www.w3.org/2000/svg" xmlns:xlink="http://www.w3.org/1999/xlink">
    <!-- Generator: Sketch 46 (44423) - http://www.bohemiancoding.com/sketch -->
    <title>Untitled</title>
    <desc>Created with Sketch.</desc>
    <defs></defs>
    <g id="Page-1" stroke="none" stroke-width="1" fill="none" fill-rule="evenodd">
        <path d="M372.277,64.773 C363.652,32.824 299.465,1.398 187.184,1.398 C74.898,1.398 10.703,32.824 2.086,64.773 C1.461,65.871 1,67.07 1,68.425 L1,343.972 C1,345.179 1.32,346.32 1.871,347.332 C10.668,383.785 89.355,411 187.184,411 C284.785,411 363.348,383.898 372.434,347.578 C373.027,346.511 373.363,345.285 373.363,343.972 L373.363,68.425 C373.363,67.07 372.902,65.871 372.277,64.773 Z M357.879,254.492 C357.672,255.394 357.383,256.289 357.016,257.199 C356.719,257.933 356.355,258.671 355.953,259.41 C355.453,260.324 354.895,261.242 354.23,262.156 C353.738,262.851 353.18,263.535 352.602,264.218 C351.773,265.195 350.895,266.171 349.898,267.14 C349.293,267.726 348.633,268.308 347.961,268.898 C346.738,269.96 345.465,271.019 344.043,272.07 C343.434,272.523 342.777,272.964 342.129,273.41 C340.445,274.57 338.688,275.726 336.762,276.859 C336.254,277.164 335.711,277.453 335.18,277.75 C332.961,279.003 330.645,280.246 328.145,281.453 C327.824,281.609 327.488,281.757 327.16,281.906 C324.367,283.226 321.449,284.519 318.328,285.773 C318.238,285.808 318.148,285.839 318.059,285.875 C301.148,292.632 279.512,298.312 254.305,302.039 C254.176,302.05 254.051,302.066 253.926,302.089 C249.023,302.812 243.996,303.453 238.836,304.019 C237.996,304.109 237.109,304.168 236.258,304.257 C231.754,304.726 227.195,305.156 222.504,305.5 C220.359,305.656 218.109,305.73 215.93,305.867 C212.398,306.074 208.906,306.304 205.285,306.429 C199.371,306.617 193.34,306.738 187.184,306.738 C181.023,306.738 174.992,306.617 169.07,306.41 C165.449,306.281 161.957,306.043 158.43,305.843 C156.246,305.714 153.996,305.632 151.852,305.476 C147.16,305.136 142.602,304.703 138.098,304.234 C137.246,304.144 136.363,304.085 135.52,303.996 C130.359,303.429 125.332,302.781 120.434,302.066 C120.305,302.05 120.18,302.039 120.051,302.015 C94.844,298.293 73.207,292.609 56.297,285.855 C56.207,285.824 56.117,285.789 56.027,285.75 C52.906,284.5 49.98,283.203 47.195,281.886 C46.875,281.73 46.531,281.578 46.211,281.429 C43.711,280.222 41.395,278.988 39.176,277.73 C38.652,277.429 38.102,277.14 37.598,276.835 C35.668,275.703 33.91,274.55 32.227,273.386 C31.586,272.941 30.922,272.5 30.312,272.046 C28.891,270.996 27.617,269.941 26.395,268.875 C25.73,268.293 25.062,267.714 24.457,267.117 C23.461,266.148 22.582,265.179 21.754,264.199 C21.176,263.511 20.617,262.828 20.125,262.136 C19.469,261.218 18.91,260.304 18.402,259.386 C18.004,258.648 17.645,257.914 17.34,257.175 C16.973,256.273 16.684,255.371 16.477,254.472 C16.199,253.289 15.895,252.082 15.895,250.882 C15.895,250.039 15.992,249.199 16.125,248.363 C16.312,247.242 16.207,246.117 15.895,245.05 L15.895,189.761 C16.102,189.957 16.363,190.14 16.578,190.335 C18.203,191.765 19.855,193.187 21.719,194.558 C49.773,215.777 105.871,232.265 187.184,232.265 C268.148,232.265 324.105,215.91 352.281,194.82 C354.531,193.179 356.555,191.488 358.461,189.769 L358.469,189.761 L358.469,245.05 C358.156,246.117 358.051,247.242 358.238,248.363 C358.379,249.199 358.469,250.039 358.469,250.882 C358.469,252.082 358.164,253.289 357.879,254.492 Z M358.469,100.394 L358.469,155.683 C358.156,156.75 358.051,157.875 358.238,158.996 C358.379,159.832 358.469,160.671 358.469,161.515 C358.469,162.714 358.164,163.921 357.879,165.125 C357.672,166.027 357.383,166.921 357.016,167.832 C356.719,168.566 356.355,169.304 355.953,170.043 C355.453,170.957 354.895,171.875 354.23,172.789 C353.738,173.484 353.18,174.168 352.602,174.851 C351.773,175.828 350.895,176.804 349.898,177.773 C349.293,178.359 348.633,178.941 347.961,179.531 C346.738,180.593 345.465,181.652 344.043,182.703 C343.434,183.156 342.777,183.597 342.129,184.043 C340.445,185.203 338.688,186.359 336.762,187.492 C336.254,187.796 335.711,188.085 335.18,188.382 C332.961,189.636 330.645,190.878 328.145,192.085 C327.824,192.242 327.488,192.39 327.16,192.539 C324.367,193.859 321.449,195.152 318.328,196.406 C318.238,196.441 318.148,196.472 318.059,196.507 C301.148,203.265 279.512,208.945 254.305,212.671 C254.176,212.683 254.051,212.699 253.926,212.722 C249.023,213.445 243.996,214.085 238.836,214.652 C237.996,214.742 237.109,214.8 236.258,214.89 C231.754,215.359 227.195,215.789 222.504,216.132 C220.359,216.289 218.109,216.363 215.93,216.496 C212.398,216.707 208.906,216.937 205.285,217.062 C199.371,217.25 193.34,217.371 187.184,217.371 C181.023,217.371 174.992,217.25 169.07,217.043 C165.449,216.914 161.957,216.675 158.43,216.476 C156.246,216.347 153.996,216.265 151.852,216.109 C147.16,215.769 142.602,215.335 138.098,214.867 C137.246,214.777 136.363,214.718 135.52,214.628 C130.359,214.062 125.332,213.414 120.434,212.699 C120.305,212.683 120.18,212.671 120.051,212.648 C94.844,208.925 73.207,203.242 56.297,196.488 C56.207,196.457 56.117,196.421 56.027,196.382 C52.906,195.132 49.98,193.835 47.195,192.519 C46.875,192.363 46.531,192.21 46.211,192.062 C43.711,190.855 41.395,189.621 39.176,188.363 C38.652,188.062 38.102,187.773 37.598,187.468 C35.668,186.335 33.91,185.183 32.227,184.019 C31.586,183.574 30.922,183.132 30.312,182.679 C28.891,181.628 27.617,180.574 26.395,179.507 C25.73,178.925 25.062,178.343 24.457,177.75 C23.461,176.781 22.582,175.812 21.754,174.832 C21.176,174.144 20.617,173.46 20.125,172.769 C19.469,171.851 18.91,170.937 18.402,170.019 C18.004,169.281 17.645,168.546 17.34,167.808 C16.973,166.906 16.684,166.003 16.477,165.105 C16.199,163.921 15.895,162.714 15.895,161.515 C15.895,160.671 15.992,159.832 16.125,158.996 C16.312,157.875 16.207,156.75 15.895,155.683 L15.895,100.394 C16.789,101.207 17.809,102.003 18.777,102.808 C19.312,103.253 19.812,103.703 20.379,104.148 C22.613,105.906 25.023,107.64 27.641,109.332 C28.184,109.683 28.793,110.023 29.359,110.375 C31.547,111.738 33.863,113.07 36.301,114.382 C37.203,114.863 38.102,115.339 39.035,115.816 C41.75,117.203 44.605,118.55 47.605,119.855 C48.098,120.07 48.543,120.293 49.043,120.503 C52.535,121.984 56.242,123.398 60.102,124.769 C61.168,125.148 62.285,125.507 63.379,125.878 C66.445,126.914 69.621,127.906 72.902,128.867 C74.086,129.207 75.25,129.566 76.465,129.894 C80.82,131.101 85.316,132.246 90.039,133.304 C90.688,133.453 91.387,133.574 92.043,133.714 C96.207,134.621 100.523,135.464 104.965,136.253 C106.469,136.523 107.996,136.773 109.527,137.027 C113.75,137.722 118.102,138.355 122.562,138.933 C123.707,139.082 124.805,139.253 125.965,139.394 C131.508,140.066 137.242,140.64 143.133,141.132 C144.582,141.25 146.094,141.339 147.57,141.445 C152.285,141.785 157.102,142.07 162.031,142.293 C163.828,142.375 165.613,142.457 167.445,142.523 C173.867,142.738 180.406,142.898 187.184,142.898 C193.957,142.898 200.496,142.738 206.918,142.523 C208.742,142.457 210.527,142.375 212.332,142.293 C217.262,142.07 222.078,141.785 226.793,141.445 C228.27,141.332 229.773,141.25 231.234,141.132 C237.125,140.648 242.859,140.066 248.398,139.394 C249.559,139.253 250.656,139.082 251.801,138.933 C256.262,138.355 260.605,137.722 264.836,137.027 C266.367,136.773 267.895,136.523 269.398,136.253 C273.84,135.464 278.156,134.621 282.32,133.714 C282.977,133.574 283.676,133.445 284.324,133.304 C289.047,132.246 293.543,131.093 297.902,129.894 C299.113,129.558 300.277,129.207 301.461,128.867 C304.746,127.906 307.918,126.914 310.984,125.878 C312.078,125.507 313.195,125.148 314.262,124.769 C318.121,123.398 321.836,121.984 325.32,120.503 C325.82,120.293 326.266,120.07 326.758,119.855 C329.762,118.543 332.613,117.203 335.332,115.816 C336.262,115.339 337.168,114.863 338.062,114.382 C340.5,113.078 342.816,111.746 345.004,110.375 C345.57,110.023 346.18,109.683 346.727,109.332 C349.34,107.64 351.75,105.914 353.984,104.148 C354.543,103.703 355.043,103.253 355.586,102.808 C356.555,102.003 357.574,101.207 358.469,100.394 Z M187.184,16.293 C288.129,16.293 358.469,45.722 358.469,72.148 C358.469,98.57 288.129,128.003 187.184,128.003 C86.234,128.003 15.895,98.57 15.895,72.148 C15.895,45.722 86.234,16.293 187.184,16.293 Z M358.469,341.761 C358.363,342.089 358.289,342.425 358.23,342.765 C354.008,368.527 284.266,396.105 187.184,396.105 C90.098,396.105 20.355,368.527 16.133,342.765 C16.074,342.429 15.992,342.105 15.895,341.789 L15.895,279.128 C16.102,279.324 16.363,279.507 16.578,279.703 C18.203,281.132 19.855,282.554 21.719,283.925 C49.773,305.144 105.871,321.632 187.184,321.632 C268.148,321.632 324.105,305.277 352.281,284.187 C354.531,282.546 356.555,280.855 358.461,279.136 L358.469,279.128 L358.469,341.761 Z" id="002-database" fill="#000000"></path>
    </g>
</svg>