<?xml version="1.0" encoding="UTF-8"?>
<svg width="321px" height="411px" viewBox="0 0 321 411" version="1.1" xmlns="http://www.w3.org/2000/svg" xmlns:xlink="http://www.w3.org/1999/xlink">
    <!-- Generator: Sketch 46 (44423) - http://www.bohemiancoding.com/sketch -->
    <title>Untitled</title>
    <desc>Created with Sketch.</desc>
    <defs>
        <polygon id="path-1" points="0.06 0.4 0.06 410.002 320.852 410.002 320.852 0.4"></polygon>
    </defs>
    <g id="Page-1" stroke="none" stroke-width="1" fill="none" fill-rule="evenodd">
        <g id="001-list">
            <g id="Group-3">
                <mask id="mask-2" fill="white">
                    <use xlink:href="#path-1"></use>
                </mask>
                <g id="Clip-2"></g>
                <path d="M221.281,0.4 L0,0.4 L0,410.002 L320.852,410.002 L320.852,99.974 L221.281,0.4 Z M225.281,23.705 L297.547,95.974 L225.281,95.974 L225.281,23.705 Z M13.652,396.345 L13.652,14.052 L211.625,14.052 L211.625,109.627 L307.199,109.627 L307.199,396.345 L13.652,396.345 Z" id="Fill-1" fill="#000000" mask="url(#mask-2)"></path>
            </g>
            <path d="M245.762,143.759 L136.535,143.759 C132.766,143.759 129.707,146.81 129.707,150.587 C129.707,154.361 132.766,157.412 136.535,157.412 L245.762,157.412 C249.527,157.412 252.586,154.361 252.586,150.587 C252.586,146.81 249.527,143.759 245.762,143.759 Z" id="Fill-4" fill="#000000"></path>
            <path d="M111.785,124.775 L82.426,148.267 L73.094,138.935 C70.426,136.263 66.109,136.263 63.441,138.935 C60.77,141.603 60.77,145.916 63.441,148.587 L77.094,162.24 C78.418,163.564 80.164,164.24 81.922,164.24 C83.422,164.24 84.93,163.748 86.18,162.744 L120.312,135.439 C123.262,133.076 123.734,128.783 121.379,125.841 C119.031,122.892 114.73,122.42 111.785,124.775 Z" id="Fill-5" fill="#000000"></path>
            <path d="M245.762,218.853 L136.535,218.853 C132.766,218.853 129.707,221.904 129.707,225.681 C129.707,229.455 132.766,232.505 136.535,232.505 L245.762,232.505 C249.527,232.505 252.586,229.455 252.586,225.681 C252.586,221.904 249.527,218.853 245.762,218.853 Z" id="Fill-6" fill="#000000"></path>
            <path d="M111.785,199.869 L82.426,223.357 L73.094,214.025 C70.426,211.357 66.109,211.357 63.441,214.025 C60.77,216.697 60.77,221.009 63.441,223.681 L77.094,237.334 C78.418,238.658 80.164,239.334 81.922,239.334 C83.422,239.334 84.93,238.841 86.18,237.837 L120.312,210.533 C123.262,208.17 123.734,203.877 121.379,200.935 C119.031,197.986 114.73,197.513 111.785,199.869 Z" id="Fill-7" fill="#000000"></path>
            <path d="M245.762,293.947 L136.535,293.947 C132.766,293.947 129.707,296.998 129.707,300.775 C129.707,304.548 132.766,307.599 136.535,307.599 L245.762,307.599 C249.527,307.599 252.586,304.548 252.586,300.775 C252.586,296.998 249.527,293.947 245.762,293.947 Z" id="Fill-8" fill="#000000"></path>
            <path d="M111.785,274.962 L82.426,298.451 L73.094,289.119 C70.426,286.451 66.109,286.451 63.441,289.119 C60.77,291.791 60.77,296.103 63.441,298.775 L77.094,312.427 C78.418,313.752 80.164,314.427 81.922,314.427 C83.422,314.427 84.93,313.935 86.18,312.931 L120.312,285.627 C123.262,283.263 123.734,278.97 121.379,276.025 C119.031,273.076 114.73,272.607 111.785,274.962 Z" id="Fill-9" fill="#000000"></path>
        </g>
    </g>
</svg>