<?xml version="1.0" encoding="UTF-8"?>
<svg width="676px" height="193px" viewBox="0 0 676 193" version="1.1" xmlns="http://www.w3.org/2000/svg" xmlns:xlink="http://www.w3.org/1999/xlink">
    <!-- Generator: Sketch 46 (44423) - http://www.bohemiancoding.com/sketch -->
    <title>filmstack@1.5x</title>
    <desc>Created with Sketch.</desc>
    <defs>
        <filter x="-0.5%" y="-1.3%" width="101.0%" height="103.7%" filterUnits="objectBoundingBox" id="filter-1">
            <feOffset dx="0" dy="1" in="SourceAlpha" result="shadowOffsetOuter1"></feOffset>
            <feGaussianBlur stdDeviation="1" in="shadowOffsetOuter1" result="shadowBlurOuter1"></feGaussianBlur>
            <feColorMatrix values="0 0 0 0 0   0 0 0 0 0   0 0 0 0 0  0 0 0 0.5 0" type="matrix" in="shadowBlurOuter1" result="shadowMatrixOuter1"></feColorMatrix>
            <feMerge>
                <feMergeNode in="shadowMatrixOuter1"></feMergeNode>
                <feMergeNode in="SourceGraphic"></feMergeNode>
            </feMerge>
        </filter>
        <path d="M164.193939,15.7272727 C164.187879,15.7272727 24.8484848,15.7212121 24.8484848,15.7212121 C19.7878788,15.7393939 15.7090909,19.6909091 15.7090909,24.569697 L15.7090909,40.3030303 L15.7090909,139.35098 L15.7090909,164.121212 C15.7090909,169.169697 19.8060606,173.254545 24.8484848,173.254545 L88.7699054,173.254545 L164.163636,173.254545 C169.212121,173.254545 173.30303,169.169697 173.30303,164.121212 L173.30303,40.3030303 L173.30303,24.569697 C173.30303,19.6909091 169.224242,15.7393939 164.193939,15.7272727 Z" id="path-2"></path>
        <filter x="-2.2%" y="-1.6%" width="104.4%" height="104.4%" filterUnits="objectBoundingBox" id="filter-3">
            <feOffset dx="0" dy="1" in="SourceAlpha" result="shadowOffsetOuter1"></feOffset>
            <feGaussianBlur stdDeviation="1" in="shadowOffsetOuter1" result="shadowBlurOuter1"></feGaussianBlur>
            <feColorMatrix values="0 0 0 0 0   0 0 0 0 0   0 0 0 0 0  0 0 0 0.5 0" type="matrix" in="shadowBlurOuter1"></feColorMatrix>
        </filter>
    </defs>
    <g id="Logos" stroke="none" stroke-width="1" fill="none" fill-rule="evenodd">
        <g id="filmstack" filter="url(#filter-1)" transform="translate(2.000000, 1.000000)">
            <g id="mark">
                <path d="M188.636364,141.357576 L156.587879,21.7575758 L152.515152,6.55757576 C151.254545,1.85454545 146.29697,-0.909090909 141.430303,0.36969697 C141.424242,0.375757576 6.83030303,36.4363636 6.83030303,36.4363636 C1.94545455,37.769697 -0.963636364,42.6363636 0.296969697,47.3515152 L4.36969697,62.5454545 L36.4181818,182.145455 C37.7212121,187.018182 42.7333333,189.909091 47.6060606,188.6 L182.181818,152.545455 C187.048485,151.236364 189.945455,146.230303 188.636364,141.357576 Z" id="stack" fill="#FC7E0F" fill-rule="nonzero"></path>
                <g id="film-bg" fill-rule="nonzero">
                    <use fill="black" fill-opacity="1" filter="url(#filter-3)" xlink:href="#path-2"></use>
                    <use fill="#FC7E0F" fill-rule="evenodd" xlink:href="#path-2"></use>
                </g>
                <path d="M124.818182,88.4363636 L124.818182,27.830303 L64.2121212,27.830303 L64.2121212,88.4363636 L124.818182,88.4363636 Z M124.818182,161.163636 L124.818182,100.557576 L64.2121212,100.557576 L64.2121212,161.163636 L124.818182,161.163636 Z M27.8484848,39.9515152 L52.0909091,39.9515152 L52.0909091,27.830303 L27.8484848,27.830303 L27.8484848,39.9515152 L27.8484848,39.9515152 Z M27.8484848,64.1939394 L52.0909091,64.1939394 L52.0909091,52.0727273 L27.8484848,52.0727273 L27.8484848,64.1939394 L27.8484848,64.1939394 Z M27.8484848,88.4363636 L52.0909091,88.4363636 L52.0909091,76.3212121 L27.8484848,76.3212121 L27.8484848,88.4363636 L27.8484848,88.4363636 Z M27.8484848,112.678788 L52.0909091,112.678788 L52.0909091,100.557576 L27.8484848,100.557576 L27.8484848,112.678788 L27.8484848,112.678788 Z M27.8484848,136.921212 L52.0909091,136.921212 L52.0909091,124.8 L27.8484848,124.8 L27.8484848,136.921212 L27.8484848,136.921212 Z M27.8484848,161.163636 L52.0909091,161.163636 L52.0909091,149.042424 L27.8484848,149.042424 L27.8484848,161.163636 L27.8484848,161.163636 Z M136.939394,27.830303 L136.939394,39.9515152 L161.181818,39.9515152 L161.181818,27.830303 L136.939394,27.830303 Z M136.939394,64.1939394 L161.181818,64.1939394 L161.181818,52.0727273 L136.939394,52.0727273 L136.939394,64.1939394 Z M136.939394,88.4363636 L161.181818,88.4363636 L161.181818,76.3212121 L136.939394,76.3212121 L136.939394,88.4363636 Z M136.939394,112.678788 L161.181818,112.678788 L161.181818,100.557576 L136.939394,100.557576 L136.939394,112.678788 Z M136.939394,136.921212 L161.181818,136.921212 L161.181818,124.8 L136.939394,124.8 L136.939394,136.921212 Z M136.939394,161.163636 L161.181818,161.163636 L161.181818,149.042424 L136.939394,149.042424 L136.939394,161.163636 Z" id="film" fill="#34343C"></path>
            </g>
            <text fill="#FFFFFF" font-family="AvenirNext-Bold, Avenir Next" font-size="105" font-weight="bold">
                <tspan x="210" y="126">filmstack</tspan>
            </text>
        </g>
    </g>
</svg>